HIERARCHY
ROOT Hips
{
	OFFSET -0.766329 105.751518 -1.111724
	CHANNELS 6 Xposition Yposition Zposition Xrotation Yrotation Zrotation
	JOINT Chest
	{
		OFFSET 0.248713 13.542801 1.638556
		CHANNELS 3 Xrotation Yrotation Zrotation
		JOINT Chest2
		{
			OFFSET -0.983785 21.282066 2.274284
			CHANNELS 3 Xrotation Yrotation Zrotation
			JOINT Chest3
			{
				OFFSET -0.692944 14.859848 -1.234697
				CHANNELS 3 Xrotation Yrotation Zrotation
				JOINT Neck
				{
					OFFSET 0.232811 17.225296 1.360520
					CHANNELS 3 Xrotation Yrotation Zrotation
					JOINT Head
					{
						OFFSET -0.412079 10.405945 1.172298
						CHANNELS 3 Xrotation Yrotation Zrotation
						End Site
						{
							OFFSET -0.408239 10.414001 1.099764
						}
					}
				}
				JOINT LeftCollar
				{
					OFFSET 4.527610 12.947464 3.697092
					CHANNELS 3 Xrotation Yrotation Zrotation
					JOINT LeftUpArm
					{
						OFFSET 14.104127 -5.601547 -8.842834
						CHANNELS 3 Xrotation Yrotation Zrotation
						JOINT LeftLowArm
						{
							OFFSET 4.135056 -33.504669 -0.259622
							CHANNELS 3 Xrotation Yrotation Zrotation
							JOINT LeftHand
							{
								OFFSET -1.321100 -28.037964 10.633655
								CHANNELS 3 Xrotation Yrotation Zrotation
								End Site
								{
									OFFSET -0.288738 -6.127861 2.324051
								}
							}
						}
					}
				}
				JOINT RightCollar
				{
					OFFSET -3.877347 13.026825 4.132398
					CHANNELS 3 Xrotation Yrotation Zrotation
					JOINT RightUpArm
					{
						OFFSET -14.404807 -6.080551 -8.001554
						CHANNELS 3 Xrotation Yrotation Zrotation
						JOINT RightLowArm
						{
							OFFSET -4.868902 -33.406982 -0.046885
							CHANNELS 3 Xrotation Yrotation Zrotation
							JOINT RightHand
							{
								OFFSET 2.554283 -27.771721 11.097852
								CHANNELS 3 Xrotation Yrotation Zrotation
								End Site
								{
									OFFSET 0.558256 -6.069786 2.425552
								}
							}
						}
					}
				}
			}
		}
	}
	JOINT LeftUpLeg
	{
		OFFSET 10.016021 -0.212128 0.231232
		CHANNELS 3 Xrotation Yrotation Zrotation
		JOINT LeftLowLeg
		{
			OFFSET 4.001475 -46.959927 -4.769034
			CHANNELS 3 Xrotation Yrotation Zrotation
			JOINT LeftFoot
			{
				OFFSET -0.209793 -42.715828 -13.262074
				CHANNELS 3 Xrotation Yrotation Zrotation
				JOINT LeftToe
				{
					OFFSET -0.055978 -16.674061 16.778927
					CHANNELS 3 Xrotation Yrotation Zrotation
					End Site
					{
						OFFSET 1.311543 -2.283145 23.507999
					}
				}
			}
		}
	}
	JOINT RightUpLeg
	{
		OFFSET -10.016028 0.211937 -0.231256
		CHANNELS 3 Xrotation Yrotation Zrotation
		JOINT RightLowLeg
		{
			OFFSET -2.165053 -47.116806 -4.396855
			CHANNELS 3 Xrotation Yrotation Zrotation
			JOINT RightFoot
			{
				OFFSET 0.863914 -42.173126 -14.874875
				CHANNELS 3 Xrotation Yrotation Zrotation
				JOINT RightToe
				{
					OFFSET -1.616149 -18.237207 14.978294
					CHANNELS 3 Xrotation Yrotation Zrotation
					End Site
					{
						OFFSET -4.238198 -4.599441 22.813131
					}
				}
			}
		}
	}
}
MOTION
Frames: 11
Frame Time: 0.033333
1.360439 89.688095 -2.734848 3.279490 -7.720220 9.417391 19.227351 0.069656 11.684445 -4.322814 5.056869 -9.165626 -4.611925 11.500503 2.366518 0.204631 -7.031061 4.276499 -0.000002 0.000000 -0.000001 -2.268734 -6.049455 20.741065 -12.413164 -14.548284 44.542385 -58.443818 -25.428861 71.171760 0.000003 0.000000 -0.000001 7.111208 28.295146 -37.912372 -114.425934 53.642830 29.106902 -32.882679 -0.735212 -46.746805 -0.000000 -0.000003 -0.000004 -44.080846 0.740351 -7.012533 59.074094 -14.280011 -17.735850 -25.918814 19.671696 18.008036 -0.000000 0.000001 -0.000000 -34.499169 28.986636 -57.734653 33.999128 12.220992 51.657967 26.930901 -13.214876 3.766113 0.000000 0.000002 -0.000002 
1.318471 89.583740 -2.781282 2.474257 -8.052716 9.359637 19.762852 0.109024 11.534465 -4.103699 5.014697 -9.151445 -4.703591 11.662090 2.445161 0.405427 -7.033816 4.275356 0.000001 0.000000 0.000004 -2.278681 -6.252069 20.710868 -12.299627 -14.224752 44.579695 -58.784433 -25.547004 70.892282 -0.000000 0.000002 -0.000003 6.998166 28.353654 -37.569063 -113.782646 53.354808 28.763658 -33.072172 -0.727286 -46.159672 -0.000006 0.000004 -0.000000 -43.499897 0.643511 -6.804357 59.174259 -14.425633 -18.168073 -26.158513 19.971319 18.367297 -0.000001 -0.000000 -0.000001 -35.102347 28.951502 -56.914102 35.494280 13.005119 50.439117 26.766135 -12.491066 3.887410 0.000001 0.000000 -0.000001 
1.285786 89.494385 -2.828951 2.435551 -7.997284 9.417831 19.666946 0.089681 11.609888 -4.229957 5.057037 -9.213461 -4.476367 11.527624 2.453865 0.379430 -6.957939 4.184623 -0.000003 0.000000 0.000000 -2.377842 -5.668853 20.423189 -12.387620 -14.627724 44.635706 -59.210316 -25.750544 70.158037 -0.000001 0.000002 0.000003 7.163046 28.585498 -37.300425 -112.736746 53.163170 28.234595 -33.705723 -0.214207 -45.733574 -0.000004 0.000001 -0.000004 -43.444750 0.713158 -6.866198 59.085883 -14.344304 -18.079866 -26.208247 19.859914 18.315340 -0.000000 0.000001 -0.000001 -35.093963 28.936096 -56.942707 35.672405 13.018464 50.241984 27.011948 -12.045115 3.990030 0.000002 -0.000002 -0.000000 
1.254409 89.415382 -2.880934 2.722935 -8.052530 9.451515 19.498356 0.068134 11.548626 -4.403770 5.150093 -9.296482 -4.312744 11.632997 2.549423 -0.030236 -7.050100 4.297031 -0.000001 -0.000001 -0.000003 -2.314015 -5.441961 20.385321 -12.377817 -15.028330 44.545660 -58.841246 -25.727840 70.295808 -0.000000 -0.000002 -0.000002 7.287659 28.522303 -37.309102 -112.619178 53.689863 27.997535 -33.655125 0.101007 -46.274928 -0.000003 0.000003 -0.000003 -43.533242 0.716871 -6.885024 58.493139 -14.175759 -17.981984 -26.126414 19.990610 18.355411 -0.000001 0.000001 -0.000000 -35.195507 29.030582 -56.951681 35.226735 12.762253 50.366983 27.148472 -12.320873 3.932790 0.000001 0.000000 -0.000001 
1.227133 89.340477 -2.933696 2.630565 -7.783155 9.454408 19.592749 0.086912 11.612264 -4.887949 5.078163 -9.139947 -3.897047 11.794885 2.395539 0.032500 -7.216417 4.414332 -0.000001 0.000000 -0.000002 -2.215097 -6.201011 20.627771 -12.386298 -14.534380 44.307161 -59.329994 -25.640347 69.726758 0.000001 -0.000002 -0.000002 7.022107 28.356271 -37.316540 -112.057709 53.516772 27.543247 -34.031151 0.007243 -45.972296 -0.000000 -0.000000 -0.000003 -43.623257 0.819172 -7.078601 58.833433 -14.170453 -17.651137 -26.089808 19.822233 18.195812 0.000000 0.000001 0.000000 -34.859366 28.926855 -57.215730 35.310668 12.848317 50.422874 26.438858 -11.981269 3.831948 0.000002 0.000000 -0.000000 
1.199901 89.276512 -2.980615 2.478753 -7.645284 9.517687 19.688575 0.097245 11.436394 -5.016397 5.064899 -9.104377 -3.886884 11.746839 2.500345 0.418604 -7.217719 4.513383 0.000000 -0.000000 -0.000000 -2.286533 -5.824293 20.607871 -12.814611 -15.016050 44.060963 -59.945736 -25.569165 68.715692 -0.000003 -0.000000 -0.000002 7.242658 28.712196 -37.469649 -110.942763 53.608027 26.656020 -34.835392 0.306480 -45.977821 -0.000003 0.000000 -0.000005 -43.583260 0.862603 -7.201028 58.981313 -14.309357 -17.640596 -26.192736 19.863259 18.214462 0.000001 -0.000000 -0.000000 -34.784927 28.911262 -57.253122 35.527133 13.047002 50.266641 26.386798 -11.793957 3.887083 -0.000001 0.000004 -0.000002 
1.180638 89.227310 -3.023043 2.456001 -7.752160 9.563255 19.809647 0.095867 11.347910 -4.635197 5.085542 -9.197665 -4.151855 11.869189 2.513915 0.715772 -7.292572 4.546967 -0.000001 0.000000 -0.000000 -2.112584 -6.093726 20.605356 -12.821752 -15.157144 44.192881 -59.705573 -25.442376 68.851005 -0.000001 0.000001 0.000001 7.088951 28.381970 -37.415035 -111.502087 53.661019 27.094281 -34.302754 -0.019474 -46.062318 0.000001 0.000003 -0.000005 -43.457058 0.886120 -7.242640 58.697642 -14.273214 -17.617245 -26.181596 19.961650 18.287586 -0.000000 0.000000 -0.000001 -34.936851 28.983816 -57.177074 35.514361 13.020833 50.257976 26.396909 -11.834648 3.829598 -0.000001 -0.000001 -0.000001 
1.165874 89.178909 -3.069795 2.836002 -7.816778 9.413293 19.565021 0.091507 11.453941 -4.178977 5.013480 -9.115961 -4.432640 11.533433 2.337655 0.553064 -7.088492 4.393711 -0.000002 -0.000001 -0.000001 -2.208744 -5.866166 20.880985 -12.581281 -14.892205 44.085415 -59.429414 -25.448778 69.227594 0.000002 0.000006 0.000003 7.248776 28.364840 -37.881667 -113.337748 53.995702 28.215153 -32.684378 -0.647838 -46.881500 -0.000001 -0.000002 -0.000000 -43.954364 0.760780 -7.021567 59.019234 -14.292174 -17.706726 -26.050056 19.892525 18.225959 -0.000001 0.000000 -0.000000 -35.313359 29.134066 -56.981854 35.114552 12.819226 50.638763 26.094722 -12.465070 3.733333 0.000004 -0.000002 -0.000000 
1.154874 89.137619 -3.113830 3.300603 -7.918575 9.403304 19.189367 0.079964 11.397678 -4.200197 5.093941 -9.206071 -4.411654 12.078649 2.465914 0.431228 -7.266245 4.596647 -0.000000 0.000000 0.000002 -2.048674 -6.517074 21.067949 -12.636580 -14.797489 43.850689 -59.318014 -25.467402 69.550095 -0.000000 0.000005 -0.000000 7.068329 28.074586 -37.952165 -112.609800 54.201270 27.511413 -33.703234 -0.126280 -46.992852 -0.000000 -0.000001 -0.000003 -44.328112 0.727858 -6.974538 58.886210 -14.223049 -17.659119 -26.207528 19.828538 18.284410 -0.000000 -0.000000 -0.000001 -35.775325 29.326462 -56.739532 35.124863 12.830690 50.528992 25.774183 -12.406029 3.674200 0.000001 0.000001 -0.000002 
1.144342 89.100456 -3.158236 2.993948 -7.835934 9.307871 19.961281 0.135839 11.342166 -4.718810 5.072979 -9.069897 -4.291751 11.913141 2.463643 0.396347 -7.121183 4.492480 -0.000002 0.000000 0.000001 -2.138795 -6.359968 20.999167 -12.700122 -14.995634 43.809841 -59.072066 -25.506160 69.890785 0.000002 0.000000 -0.000001 7.164702 28.103916 -38.153023 -112.918894 54.573283 27.507648 -33.324957 -0.211780 -47.410300 -0.000000 -0.000000 -0.000003 -44.157668 0.729560 -6.997966 59.102009 -14.215989 -17.527329 -26.176109 19.890167 18.296745 0.000000 0.000000 0.000000 -35.445311 29.141969 -56.790253 34.921152 12.768524 50.594179 26.075483 -12.819798 3.735285 0.000001 0.000002 -0.000002 
1.142056 89.077499 -3.209607 2.773422 -7.894242 9.340720 20.078784 0.130019 11.435994 -4.235682 5.086766 -9.158338 -4.606330 11.803450 2.456874 0.002340 -6.970036 4.316290 -0.000001 -0.000001 -0.000001 -2.155202 -6.008065 20.755937 -12.582362 -15.026128 43.878795 -59.186403 -25.644099 69.739995 0.000004 0.000001 -0.000006 7.194379 27.996259 -38.088441 -114.223057 54.044616 28.927033 -32.569245 -0.433115 -47.487160 -0.000003 -0.000001 -0.000005 -43.989062 0.742216 -6.947429 59.007111 -14.154175 -17.700452 -26.044126 19.714492 18.158664 -0.000001 0.000001 -0.000001 -35.028868 28.874177 -56.927376 35.079326 12.633932 50.222654 26.322649 -12.378044 3.770654 0.000004 0.000002 -0.000001 
